<svg width="50" height="50" viewBox="0 0 50 50" fill="none" xmlns="http://www.w3.org/2000/svg">
<path d="M29.1963 25.2212L18.124 36.2935L7.05179 25.2212L18.124 14.149L29.1963 25.2212Z" fill="#45D6FD"/>
<g opacity="0.8">
<path d="M33.0171 34.9253L41.5078 26.4346L49.9985 34.9253L41.5078 43.416L33.0171 34.9253Z" fill="#45D6FD"/>
</g>
<path d="M15.4049 13.5617L13.6257 11.5965L11.6542 13.5693L13.4493 15.5174L15.4049 13.5617Z" fill="#45D6FD"/>
<path d="M9.06141 16.1605L0 25.2219L9.06141 34.284L10.9332 32.4122L3.74348 25.2219L10.9332 18.0322L9.06141 16.1605Z" fill="#45D6FD"/>
<path d="M11.653 36.8739L13.6256 38.8464L15.404 36.8814L13.4488 34.9263L11.653 36.8739Z" fill="#45D6FD"/>
<g opacity="0.6">
<path d="M36.0152 43.4165L38.7582 40.6735L33.0103 34.9257L38.7582 29.1778L36.0152 26.4348L27.5244 34.9257L36.0152 43.4165Z" fill="#45D6FD"/>
</g>
<g opacity="0.4">
<g opacity="0.6">
<path d="M30.4791 43.4158L33.2494 40.6455L27.5282 34.925L33.2494 29.2038L30.4791 26.4342L21.9883 34.925L30.4791 43.4158Z" fill="#45D6FD"/>
</g>
</g>
<g opacity="0.8">
<path d="M33.0171 15.4907L41.5078 7L49.9985 15.4907L41.5078 23.9814L33.0171 15.4907Z" fill="#45D6FD"/>
</g>
<g opacity="0.6">
<path d="M36.0152 23.9819L38.7582 21.2389L33.0103 15.4911L38.7582 9.7432L36.0152 7.00024L27.5244 15.4911L36.0152 23.9819Z" fill="#45D6FD"/>
</g>
<g opacity="0.4">
<g opacity="0.6">
<path d="M30.4791 23.9819L33.2494 21.2116L27.5282 15.491L33.2494 9.76983L30.4791 7.00021L21.9883 15.491L30.4791 23.9819Z" fill="#45D6FD"/>
</g>
</g>
</svg>
