<svg width="50" height="50" viewBox="0 0 50 50" fill="none" xmlns="http://www.w3.org/2000/svg">
<g opacity="0.75">
<path d="M31.2034 27.6933L27.663 26.5559L27.1103 27.1087L12.1592 11.6463L13.2295 10.576L7.58838 6.88089L6.84107 7.62741L6.09375 8.37472L9.78965 14.0159L10.8592 12.9456L25.8111 28.4079L25.2592 28.9606L26.3957 32.501L39.5268 45.632L44.3345 40.8243L31.2034 27.6933Z" fill="#45D6FD"/>
</g>
<path d="M32.0775 13.6449L24.6123 21.1101L28.3808 24.8778L35.846 17.4134L36.5438 18.1113L43.5999 16.221L45.4901 9.16501L45.1495 8.82445L40.0587 13.9145L37.0375 12.4526L35.5764 9.4314L40.6664 4.34136L40.3251 4L33.2698 5.89102L31.3788 12.9463L32.0775 13.6449Z" fill="#45D6FD"/>
<path d="M17.4126 35.8515L23.5786 29.6855L19.8101 25.9178L13.6441 32.083L12.9463 31.3851L5.89022 33.2753L4 40.3314L4.34056 40.6719L9.4314 35.5819L12.4526 37.0438L13.9145 40.065L8.82365 45.155L9.16501 45.4964L16.2202 43.6054L18.1113 36.5501L17.4126 35.8515Z" fill="#45D6FD"/>
<g opacity="0.5">
<path d="M24.3175 31.1609L20.1758 35.3027L21.8467 36.9744L25.0672 33.7538" fill="#45D6FD"/>
</g>
<g opacity="0.5">
<path d="M32.2772 26.4769L35.5488 23.2053L33.8779 21.5336L29.7354 25.6761" fill="#45D6FD"/>
</g>
</svg>
