<svg width="50" height="50" viewBox="0 0 50 50" fill="none" xmlns="http://www.w3.org/2000/svg">
<path d="M40.3284 24.8222L25.0322 40.1183L9.7361 24.8222L25.0322 9.52603L40.3284 24.8222Z" fill="#45D6FD"/>
<path d="M21.2748 8.71467L18.8173 6L16.0928 8.72498L18.5732 11.4167L21.2748 8.71467Z" fill="#45D6FD"/>
<path d="M12.5179 12.3034L0 24.8221L12.5179 37.3408L15.1041 34.7546L5.17084 24.8221L15.1041 14.8896L12.5179 12.3034Z" fill="#45D6FD"/>
<path d="M16.0886 40.9202L18.8129 43.6444L21.2706 40.9305L18.5698 38.2285L16.0886 40.9202Z" fill="#45D6FD"/>
<path d="M49.9998 37.9684H36.3869L26.4463 28.0279" stroke="#45D6FD" stroke-width="2" stroke-miterlimit="10"/>
<path d="M50 33.4485H31.9918" stroke="#45D6FD" stroke-width="2" stroke-miterlimit="10"/>
<path d="M24.1621 18.4042H40.2941L45.9219 12.7764H49.9985" stroke="#45D6FD" stroke-width="2" stroke-miterlimit="10"/>
</svg>
