<svg id="Layer_1" data-name="Layer 1" xmlns="http://www.w3.org/2000/svg" xmlns:xlink="http://www.w3.org/1999/xlink" viewBox="0 0 122.498 20.795"><defs><style>.cls-1{fill:#fff;}.cls-2{fill:url(#linear-gradient);}.cls-3{fill:url(#linear-gradient-2);}.cls-4{fill:url(#linear-gradient-3);}</style><linearGradient id="linear-gradient" x1="-940.628" y1="-214.474" x2="-940.542" y2="-214.555" gradientTransform="matrix(250.009, 0, 0, -241.88, 235167.611, -51878.749)" gradientUnits="userSpaceOnUse"><stop offset="0" stop-color="#17ecff"/><stop offset="1" stop-color="#5139ff"/></linearGradient><linearGradient id="linear-gradient-2" x1="13.416" y1="11.289" x2="12.941" y2="8.598" gradientUnits="userSpaceOnUse"><stop offset="0" stop-color="#497afc" stop-opacity="0"/><stop offset="0.14" stop-color="#4777f7" stop-opacity="0.042"/><stop offset="0.324" stop-color="#436ee9" stop-opacity="0.163"/><stop offset="0.532" stop-color="#3b5fd2" stop-opacity="0.362"/><stop offset="0.758" stop-color="#304ab2" stop-opacity="0.64"/><stop offset="0.995" stop-color="#223089" stop-opacity="0.992"/><stop offset="1" stop-color="#222f88"/></linearGradient><linearGradient id="linear-gradient-3" x1="-1496.935" y1="5.425" x2="-1497.406" y2="2.753" gradientTransform="matrix(-1, 0, 0, 1, -1478.668, 0)" gradientUnits="userSpaceOnUse"><stop offset="0" stop-color="#497afc" stop-opacity="0"/><stop offset="0.135" stop-color="#4675f4" stop-opacity="0.066"/><stop offset="0.355" stop-color="#3f68e0" stop-opacity="0.245"/><stop offset="0.632" stop-color="#3452be" stop-opacity="0.537"/><stop offset="0.953" stop-color="#24348f" stop-opacity="0.937"/><stop offset="1" stop-color="#222f88"/></linearGradient></defs><title>trickest-rgb</title><g id="Page-1"><g id="Group-82"><g id="Group-55-Copy-2"><polygon id="Path" class="cls-1" points="40.57 3.78 40.57 6.492 35.891 6.491 35.892 16.78 33.203 16.78 33.202 6.491 28.494 6.492 28.494 3.78 40.57 3.78"/><path id="Combined-Shape" class="cls-1" d="M49.353,3.78l.241.006a3.205,3.205,0,0,1,1.66.508,2.658,2.658,0,0,1,1.052,1.281,2.72,2.72,0,0,1,.069,1.635,2.958,2.958,0,0,1-.688,1.262l-.155.164-.16.151-1.23,1.131,1.263,2.364,1.128,2.1,1.268,2.4H50.708l-2.687-5.133L45.058,14.23v2.55h-2.7v-13Zm.462,2.276H44.622v5.567L50.128,6.9l.058-.06a.479.479,0,0,0-.371-.783Z"/><polygon id="Path-2" data-name="Path" class="cls-1" points="58.192 3.78 58.192 16.78 55.476 16.78 55.476 3.78 58.192 3.78"/><polygon id="Path-3" data-name="Path" class="cls-1" points="76.256 3.78 76.256 10.031 78.229 7.865 79.682 6.282 81.192 4.648 81.192 4.648 81.935 3.849 82.094 3.78 85.681 3.78 80.967 8.883 85.867 16.78 82.649 16.78 79.076 10.968 76.256 13.986 76.256 16.78 73.561 16.78 73.561 3.78 76.256 3.78"/><path id="Path-4" data-name="Path" class="cls-1" d="M96.9,3.78V6.492H90.242a.741.741,0,0,0-.57.253.86.86,0,0,0-.235.5l-.007.118V8.944H96.9v2.7H89.43v1.708a.722.722,0,0,0,.094.37l.053.078.066.074a.691.691,0,0,0,.421.208l.1.005H96.9v2.7H90.165a3.35,3.35,0,0,1-1.347-.272,3.489,3.489,0,0,1-1.09-.738,3.4,3.4,0,0,1-.987-2.19l-.007-.232V7.366A3.564,3.564,0,0,1,87,5.982a3.643,3.643,0,0,1,.744-1.136,3.566,3.566,0,0,1,1.114-.778,3.277,3.277,0,0,1,1.171-.282l.209-.006Z"/><path id="Path-5" data-name="Path" class="cls-1" d="M70.961,3.78V6.492H64.3a.743.743,0,0,0-.571.253.866.866,0,0,0-.235.5l-.006.118v5.982a.7.7,0,0,0,.213.522.691.691,0,0,0,.421.208l.1.005h6.738v2.7H64.223a3.35,3.35,0,0,1-1.347-.272,3.477,3.477,0,0,1-1.09-.738,3.4,3.4,0,0,1-.731-1.092,3.349,3.349,0,0,1-.256-1.1l-.007-.232V7.366a3.564,3.564,0,0,1,.27-1.384,3.643,3.643,0,0,1,.744-1.136,3.562,3.562,0,0,1,1.113-.778,3.277,3.277,0,0,1,1.172-.282L64.3,3.78Z"/><path id="Path-6" data-name="Path" class="cls-1" d="M102.036,6.492a.61.61,0,0,0-.354,1.106l.078.047.044.023a.7.7,0,0,0,.069.042l.125.061,4.677,2.4.2.106a3.505,3.505,0,0,1,1.752,2.358,3.324,3.324,0,0,1-.041,1.48,3.462,3.462,0,0,1-.662,1.337,3.5,3.5,0,0,1-1.24.959,3.9,3.9,0,0,1-1.518.362l-.246.006H98.694v-2.7h6.6a.715.715,0,0,0,.413-1.3l-.111-.066-.105-.067h0l-.121-.066-4.646-2.432-.222-.121a3.541,3.541,0,0,1-1.075-.94,3.43,3.43,0,0,1-.62-1.346,3.107,3.107,0,0,1,.033-1.422,3.234,3.234,0,0,1,.648-1.276,3.433,3.433,0,0,1,1.217-.92,3.916,3.916,0,0,1,1.49-.346l.242-.005h6.189V6.492Z"/><polygon id="Path-7" data-name="Path" class="cls-1" points="122.498 3.78 122.498 6.492 117.82 6.491 117.82 16.78 115.131 16.78 115.131 6.491 110.423 6.492 110.423 3.78 122.498 3.78"/></g></g></g><g id="Page-1-2" data-name="Page-1"><g id="test"><g id="Page-1-3" data-name="Page-1"><path id="Path-8" data-name="Path" class="cls-2" d="M10.747,20.8l1.19-2.063a1.721,1.721,0,0,0,0-1.72L4.548,4.213a.86.86,0,0,1,.744-1.29h12.4l-1.44,2.493a.861.861,0,0,1-.745.43H10.359a.86.86,0,0,0-.745,1.29l4.51,7.81h0l1.247-2.16a1.721,1.721,0,0,0,0-1.72l-1.326-2.3H16.7a1.721,1.721,0,0,0,1.489-.859l3.078-5.331A1.72,1.72,0,0,0,19.774,0H1.719A1.72,1.72,0,0,0,.23,2.579Z"/></g><g id="Page-1-2-2" data-name="Page-1-2"><path id="Path-9" data-name="Path" class="cls-3" d="M15.307,10.956,14.045,8.769h-2a.86.86,0,0,0-.745,1.29l.584,1.011Z"/></g></g></g><g id="Page-1-2-3" data-name="Page-1-2"><path id="Path-10" data-name="Path" class="cls-4" d="M16.429,5.1l1.26-2.178,1.892-.008a.86.86,0,0,1,.744,1.29l-.584,1.011Z"/></g></svg>