<svg width="50" height="50" viewBox="0 0 50 50" fill="none" xmlns="http://www.w3.org/2000/svg">
<rect x="0.5" y="0.5" width="49" height="49" rx="4.5" fill="#45D6FD" fill-opacity="0.2" stroke="#45D6FD"/>
<path d="M27.5371 25.193L20.1279 32.6022L12.7187 25.193L20.1279 17.7839L27.5371 25.193Z" fill="#45D6FD"/>
<g opacity="0.8">
<path d="M30.0947 31.6867L35.7764 26.005L41.4581 31.6867L35.7764 37.3684L30.0947 31.6867Z" fill="#45D6FD"/>
</g>
<path d="M18.3084 17.3909L17.1179 16.0758L15.7986 17.396L16.9998 18.6996L18.3084 17.3909Z" fill="#45D6FD"/>
<path d="M14.0636 19.1299L8 25.1935L14.0636 31.2576L15.3161 30.0051L10.505 25.1935L15.3161 20.3824L14.0636 19.1299Z" fill="#45D6FD"/>
<path d="M15.7979 32.9906L17.1178 34.3106L18.3078 32.9957L16.9995 31.6874L15.7979 32.9906Z" fill="#45D6FD"/>
<g opacity="0.6">
<path d="M32.1007 37.3688L33.9362 35.5333L30.0899 31.687L33.9362 27.8407L32.1007 26.0052L26.4189 31.687L32.1007 37.3688Z" fill="#45D6FD"/>
</g>
<g opacity="0.4">
<g opacity="0.6">
<path d="M28.3957 37.3683L30.2494 35.5145L26.421 31.6865L30.2494 27.8581L28.3957 26.0047L22.7139 31.6865L28.3957 37.3683Z" fill="#45D6FD"/>
</g>
</g>
<g opacity="0.8">
<path d="M30.0947 18.6817L35.7764 13L41.4581 18.6817L35.7764 24.3634L30.0947 18.6817Z" fill="#45D6FD"/>
</g>
<g opacity="0.6">
<path d="M32.1007 24.3637L33.9362 22.5282L30.0899 18.6819L33.9362 14.8356L32.1007 13.0002L26.4189 18.6819L32.1007 24.3637Z" fill="#45D6FD"/>
</g>
<g opacity="0.4">
<g opacity="0.6">
<path d="M28.3957 24.3637L30.2494 22.5099L26.421 18.6819L30.2494 14.8535L28.3957 13.0002L22.7139 18.6819L28.3957 24.3637Z" fill="#45D6FD"/>
</g>
</g>
</svg>
