<svg width="50" height="50" viewBox="0 0 50 50" fill="none" xmlns="http://www.w3.org/2000/svg">
<rect x="0.5" y="0.5" width="49" height="49" rx="4.5" fill="#45D6FD" fill-opacity="0.2" stroke="#45D6FD"/>
<g opacity="0.75">
<path d="M29.7566 27.2495L27.2401 26.4411L26.8473 26.834L16.2204 15.8437L16.9811 15.0829L12.9715 12.4565L12.4404 12.9872L11.9092 13.5183L14.5361 17.5279L15.2963 16.7672L25.9238 27.7575L25.5315 28.1503L26.3394 30.6667L35.6726 40L39.0898 36.5828L29.7566 27.2495Z" fill="#45D6FD"/>
</g>
<path d="M30.3784 17.2643L25.0723 22.5704L27.7508 25.2483L33.0569 19.9428L33.5529 20.4389L38.5682 19.0953L39.9117 14.0801L39.6697 13.838L36.0512 17.4559L33.9038 16.4168L32.8653 14.2694L36.4832 10.6515L36.2406 10.4089L31.2259 11.753L29.8818 16.7677L30.3784 17.2643Z" fill="#45D6FD"/>
<path d="M19.9543 33.0482L24.3369 28.6656L21.6583 25.9876L17.2757 30.3696L16.7797 29.8736L11.7644 31.2171L10.4209 36.2324L10.663 36.4745L14.2814 32.8566L16.4288 33.8957L17.4679 36.0431L13.8494 39.6609L14.0921 39.9036L19.1068 38.5595L20.4509 33.5448L19.9543 33.0482Z" fill="#45D6FD"/>
<g opacity="0.5">
<path d="M24.8628 29.7143L21.9189 32.6581L23.1066 33.8463L25.3957 31.5572" fill="#45D6FD"/>
</g>
<g opacity="0.5">
<path d="M30.5196 26.3849L32.8449 24.0595L31.6573 22.8713L28.7129 25.8157" fill="#45D6FD"/>
</g>
</svg>
