<svg width="50" height="50" viewBox="0 0 50 50" fill="none" xmlns="http://www.w3.org/2000/svg">
<rect x="0.5" y="0.5" width="49" height="49" rx="4.5" fill="#45D6FD" fill-opacity="0.2" stroke="#45D6FD"/>
<path d="M34.9879 25.1293L25.1309 34.9864L15.2738 25.1293L25.1309 15.2723L34.9879 25.1293Z" fill="#45D6FD"/>
<path d="M22.7098 14.7494L21.1261 13L19.3704 14.756L20.9688 16.4906L22.7098 14.7494Z" fill="#45D6FD"/>
<path d="M17.0667 17.062L9 25.1293L17.0667 33.1965L18.7334 31.5299L12.3322 25.1293L18.7334 18.7286L17.0667 17.062Z" fill="#45D6FD"/>
<path d="M19.3676 35.5031L21.1232 37.2587L22.707 35.5097L20.9665 33.7686L19.3676 35.5031Z" fill="#45D6FD"/>
<path d="M41.2212 33.601H32.4488L26.043 27.1951" stroke="#45D6FD" stroke-width="2" stroke-miterlimit="10"/>
<path d="M41.2207 30.6883H29.6159" stroke="#45D6FD" stroke-width="2" stroke-miterlimit="10"/>
<path d="M24.5703 20.9935H34.966L38.5927 17.3669H41.2197" stroke="#45D6FD" stroke-width="2" stroke-miterlimit="10"/>
</svg>
